<!--
  Application icon based on Tabler Icons "photo-check".
  Source: https://tabler.io/icons/icon/photo-check
  License: MIT, Copyright (c) 2020-2026 Paweł Kuna
-->
<svg xmlns="http://www.w3.org/2000/svg" width="256" height="256" viewBox="0 0 256 256">
  <rect x="12" y="12" width="232" height="232" rx="54" fill="#2563EB"/>
  <g
    transform="translate(40 40) scale(7.333333)"
    fill="none"
    stroke="#FFFFFF"
    stroke-width="2"
    stroke-linecap="round"
    stroke-linejoin="round"
  >
    <path d="M15 8h.01"/>
    <path d="M11.5 21h-5.5a3 3 0 0 1-3-3V6a3 3 0 0 1 3-3h12a3 3 0 0 1 3 3v7"/>
    <path d="m3 16 5-5c.928-.893 2.072-.893 3 0l4 4"/>
    <path d="m14 14 1-1c.928-.893 2.072-.893 3 0l.5.5"/>
    <path d="m15 19 2 2 4-4"/>
  </g>
</svg>
